<svg width="172" height="49" viewBox="0 0 172 49" fill="none" xmlns="http://www.w3.org/2000/svg">
<path d="M170.494 29.7281C170.363 29.7281 170.298 29.6628 170.298 29.5321V28.9301C170.298 28.8461 170.274 28.8041 170.228 28.8041C170.2 28.8041 170.162 28.8274 170.116 28.8741C169.836 29.1541 169.528 29.3921 169.192 29.5881C168.865 29.7748 168.44 29.8681 167.918 29.8681C167.32 29.8681 166.788 29.7281 166.322 29.4481C165.855 29.1681 165.486 28.7481 165.216 28.1881C164.945 27.6188 164.81 26.9328 164.81 26.1301C164.81 25.3461 164.95 24.6554 165.23 24.0581C165.51 23.4608 165.897 22.9988 166.392 22.6721C166.886 22.3361 167.451 22.1681 168.086 22.1681C168.506 22.1681 168.87 22.2334 169.178 22.3641C169.486 22.4948 169.775 22.6768 170.046 22.9101C170.12 22.9661 170.172 22.9941 170.2 22.9941C170.246 22.9941 170.27 22.9334 170.27 22.8121V19.5221C170.27 19.4008 170.321 19.3401 170.424 19.3401H171.278C171.38 19.3401 171.432 19.4008 171.432 19.5221V29.5041C171.432 29.5881 171.418 29.6488 171.39 29.6861C171.362 29.7141 171.301 29.7281 171.208 29.7281H170.494ZM170.256 23.9461C169.957 23.6474 169.654 23.4234 169.346 23.2741C169.047 23.1154 168.72 23.0361 168.366 23.0361C167.656 23.0361 167.087 23.3021 166.658 23.8341C166.228 24.3661 166.014 25.1174 166.014 26.0881C166.014 27.0681 166.224 27.8008 166.644 28.2861C167.073 28.7714 167.619 29.0141 168.282 29.0141C168.646 29.0141 168.977 28.9301 169.276 28.7621C169.584 28.5848 169.822 28.3654 169.99 28.1041C170.167 27.8428 170.256 27.5814 170.256 27.3201V23.9461Z" fill="#041028"/>
<path d="M163.098 20.7121C163.098 20.8054 163.08 20.8754 163.042 20.9221C163.005 20.9594 162.94 20.9781 162.846 20.9781H162.034C161.894 20.9781 161.824 20.8988 161.824 20.7401V19.5641C161.824 19.4148 161.89 19.3401 162.02 19.3401H162.902C162.958 19.3401 163.005 19.3588 163.042 19.3961C163.08 19.4334 163.098 19.4848 163.098 19.5501V20.7121ZM163.042 29.4901C163.042 29.5834 163.024 29.6488 162.986 29.6861C162.949 29.7141 162.884 29.7281 162.79 29.7281H162.076C161.992 29.7281 161.936 29.7141 161.908 29.6861C161.88 29.6581 161.866 29.6068 161.866 29.5321V22.5041C161.866 22.3734 161.922 22.3081 162.034 22.3081H162.888C162.991 22.3081 163.042 22.3688 163.042 22.4901V29.4901Z" fill="#041028"/>
<path d="M154.515 26.48C154.515 26.928 154.622 27.3433 154.837 27.726C155.061 28.1086 155.36 28.412 155.733 28.636C156.106 28.86 156.517 28.972 156.965 28.972C157.898 28.972 158.626 28.5846 159.149 27.81C159.186 27.7726 159.219 27.754 159.247 27.754C159.275 27.7446 159.308 27.7493 159.345 27.768L159.933 28.062C160.008 28.1086 160.017 28.174 159.961 28.258C159.597 28.818 159.163 29.2286 158.659 29.49C158.155 29.742 157.553 29.868 156.853 29.868C156.172 29.868 155.56 29.7093 155.019 29.392C154.478 29.0746 154.053 28.6313 153.745 28.062C153.446 27.4833 153.297 26.8253 153.297 26.088C153.297 25.2946 153.451 24.604 153.759 24.016C154.067 23.4186 154.487 22.9613 155.019 22.644C155.56 22.3266 156.167 22.168 156.839 22.168C157.511 22.168 158.099 22.3173 158.603 22.616C159.116 22.9146 159.513 23.3533 159.793 23.932C160.073 24.5013 160.213 25.178 160.213 25.962V26.018C160.213 26.102 160.199 26.1673 160.171 26.214C160.143 26.2513 160.087 26.27 160.003 26.27H154.641C154.557 26.27 154.515 26.34 154.515 26.48ZM158.799 25.5C158.902 25.5 158.967 25.4906 158.995 25.472C159.023 25.444 159.037 25.388 159.037 25.304C159.037 24.8933 158.948 24.5153 158.771 24.17C158.603 23.8153 158.351 23.5353 158.015 23.33C157.688 23.1153 157.306 23.008 156.867 23.008C156.391 23.008 155.976 23.1293 155.621 23.372C155.266 23.6053 154.996 23.9133 154.809 24.296C154.622 24.6693 154.534 25.0706 154.543 25.5H158.799Z" fill="#041028"/>
<path d="M145.751 29.7281C145.63 29.7281 145.569 29.6674 145.569 29.5461V19.5221C145.569 19.4008 145.621 19.3401 145.723 19.3401H146.549C146.652 19.3401 146.703 19.3961 146.703 19.5081V23.2461C146.703 23.3488 146.745 23.3628 146.829 23.2881C147.361 22.8774 147.814 22.5881 148.187 22.4201C148.561 22.2521 148.971 22.1681 149.419 22.1681C150.138 22.1681 150.689 22.3594 151.071 22.7421C151.463 23.1248 151.659 23.6428 151.659 24.2961V29.5041C151.659 29.6534 151.589 29.7281 151.449 29.7281H150.665C150.544 29.7281 150.483 29.6674 150.483 29.5461V24.5481C150.483 24.0814 150.362 23.7221 150.119 23.4701C149.886 23.2181 149.522 23.0921 149.027 23.0921C148.635 23.0921 148.276 23.1808 147.949 23.3581C147.632 23.5261 147.231 23.8154 146.745 24.2261V29.5181C146.745 29.6581 146.671 29.7281 146.521 29.7281H145.751Z" fill="#041028"/>
<path d="M140.392 29.728C140.262 29.728 140.196 29.6673 140.196 29.546V22.49C140.196 22.3686 140.248 22.308 140.35 22.308H141.162C141.265 22.308 141.316 22.3593 141.316 22.462V23.372C141.316 23.428 141.33 23.4606 141.358 23.47C141.396 23.4793 141.433 23.4606 141.47 23.414C142.18 22.5833 142.903 22.168 143.64 22.168C143.967 22.168 144.13 22.2286 144.13 22.35V23.19C144.13 23.2833 144.088 23.3206 144.004 23.302C143.836 23.274 143.626 23.26 143.374 23.26C143.104 23.26 142.81 23.3393 142.492 23.498C142.175 23.6566 141.909 23.862 141.694 24.114C141.48 24.366 141.372 24.6226 141.372 24.884V29.518C141.372 29.658 141.302 29.728 141.162 29.728H140.392Z" fill="#041028"/>
<path d="M132.845 26.48C132.845 26.928 132.952 27.3433 133.167 27.726C133.391 28.1086 133.69 28.412 134.063 28.636C134.436 28.86 134.847 28.972 135.295 28.972C136.228 28.972 136.956 28.5846 137.479 27.81C137.516 27.7726 137.549 27.754 137.577 27.754C137.605 27.7446 137.638 27.7493 137.675 27.768L138.263 28.062C138.338 28.1086 138.347 28.174 138.291 28.258C137.927 28.818 137.493 29.2286 136.989 29.49C136.485 29.742 135.883 29.868 135.183 29.868C134.502 29.868 133.89 29.7093 133.349 29.392C132.808 29.0746 132.383 28.6313 132.075 28.062C131.776 27.4833 131.627 26.8253 131.627 26.088C131.627 25.2946 131.781 24.604 132.089 24.016C132.397 23.4186 132.817 22.9613 133.349 22.644C133.89 22.3266 134.497 22.168 135.169 22.168C135.841 22.168 136.429 22.3173 136.933 22.616C137.446 22.9146 137.843 23.3533 138.123 23.932C138.403 24.5013 138.543 25.178 138.543 25.962V26.018C138.543 26.102 138.529 26.1673 138.501 26.214C138.473 26.2513 138.417 26.27 138.333 26.27H132.971C132.887 26.27 132.845 26.34 132.845 26.48ZM137.129 25.5C137.232 25.5 137.297 25.4906 137.325 25.472C137.353 25.444 137.367 25.388 137.367 25.304C137.367 24.8933 137.278 24.5153 137.101 24.17C136.933 23.8153 136.681 23.5353 136.345 23.33C136.018 23.1153 135.636 23.008 135.197 23.008C134.721 23.008 134.306 23.1293 133.951 23.372C133.596 23.6053 133.326 23.9133 133.139 24.296C132.952 24.6693 132.864 25.0706 132.873 25.5H137.129Z" fill="#041028"/>
<path d="M130.981 29.5041C131 29.5228 131.009 29.5554 131.009 29.6021C131.009 29.6861 130.958 29.7281 130.855 29.7281H129.875C129.819 29.7281 129.772 29.7188 129.735 29.7001C129.698 29.6721 129.66 29.6254 129.623 29.5601L127.509 25.9341C127.49 25.8874 127.467 25.8641 127.439 25.8641C127.411 25.8548 127.378 25.8688 127.341 25.9061L125.857 27.4041C125.792 27.4694 125.759 27.5628 125.759 27.6841V29.4901C125.759 29.5834 125.74 29.6488 125.703 29.6861C125.666 29.7141 125.6 29.7281 125.507 29.7281H124.793C124.709 29.7281 124.653 29.7141 124.625 29.6861C124.597 29.6581 124.583 29.6068 124.583 29.5321V19.5361C124.583 19.4054 124.634 19.3401 124.737 19.3401H125.591C125.703 19.3401 125.759 19.4008 125.759 19.5221V26.0181C125.759 26.1114 125.773 26.1581 125.801 26.1581C125.829 26.1581 125.862 26.1301 125.899 26.0741L129.357 22.4761C129.46 22.3641 129.558 22.3081 129.651 22.3081H130.505C130.617 22.3081 130.673 22.3408 130.673 22.4061C130.673 22.4341 130.64 22.4901 130.575 22.5741L128.363 24.8281C128.326 24.8841 128.307 24.9261 128.307 24.9541C128.307 24.9821 128.321 25.0194 128.349 25.0661L130.981 29.5041Z" fill="#041028"/>
<path d="M117.218 26.48C117.218 26.928 117.325 27.3433 117.54 27.726C117.764 28.1086 118.063 28.412 118.436 28.636C118.809 28.86 119.22 28.972 119.668 28.972C120.601 28.972 121.329 28.5846 121.852 27.81C121.889 27.7726 121.922 27.754 121.95 27.754C121.978 27.7446 122.011 27.7493 122.048 27.768L122.636 28.062C122.711 28.1086 122.72 28.174 122.664 28.258C122.3 28.818 121.866 29.2286 121.362 29.49C120.858 29.742 120.256 29.868 119.556 29.868C118.875 29.868 118.263 29.7093 117.722 29.392C117.181 29.0746 116.756 28.6313 116.448 28.062C116.149 27.4833 116 26.8253 116 26.088C116 25.2946 116.154 24.604 116.462 24.016C116.77 23.4186 117.19 22.9613 117.722 22.644C118.263 22.3266 118.87 22.168 119.542 22.168C120.214 22.168 120.802 22.3173 121.306 22.616C121.819 22.9146 122.216 23.3533 122.496 23.932C122.776 24.5013 122.916 25.178 122.916 25.962V26.018C122.916 26.102 122.902 26.1673 122.874 26.214C122.846 26.2513 122.79 26.27 122.706 26.27H117.344C117.26 26.27 117.218 26.34 117.218 26.48ZM121.502 25.5C121.605 25.5 121.67 25.4906 121.698 25.472C121.726 25.444 121.74 25.388 121.74 25.304C121.74 24.8933 121.651 24.5153 121.474 24.17C121.306 23.8153 121.054 23.5353 120.718 23.33C120.391 23.1153 120.009 23.008 119.57 23.008C119.094 23.008 118.679 23.1293 118.324 23.372C117.969 23.6053 117.699 23.9133 117.512 24.296C117.325 24.6693 117.237 25.0706 117.246 25.5H121.502Z" fill="#041028"/>
<path d="M109.204 29.7281C109.139 29.7281 109.092 29.7188 109.064 29.7001C109.045 29.6721 109.036 29.6254 109.036 29.5601V29.1541C109.036 29.0794 109.045 29.0188 109.064 28.9721C109.092 28.9161 109.139 28.8414 109.204 28.7481L113.278 23.2741L113.32 23.1901C113.32 23.1528 113.283 23.1341 113.208 23.1341H109.498C109.442 23.1341 109.4 23.1248 109.372 23.1061C109.353 23.0874 109.344 23.0454 109.344 22.9801V22.4621C109.344 22.3594 109.391 22.3081 109.484 22.3081H114.664C114.748 22.3081 114.79 22.3548 114.79 22.4481V22.8961C114.79 23.0174 114.743 23.1388 114.65 23.2601L110.562 28.7481C110.525 28.7948 110.511 28.8321 110.52 28.8601C110.529 28.8881 110.557 28.9021 110.604 28.9021H114.72C114.823 28.9021 114.874 28.9441 114.874 29.0281V29.5601C114.874 29.6721 114.813 29.7281 114.692 29.7281H109.204Z" fill="#041028"/>
<path d="M99.3215 26.48C99.3215 26.928 99.4288 27.3433 99.6435 27.726C99.8675 28.1086 100.166 28.412 100.54 28.636C100.913 28.86 101.324 28.972 101.772 28.972C102.705 28.972 103.433 28.5846 103.956 27.81C103.993 27.7726 104.026 27.754 104.054 27.754C104.082 27.7446 104.114 27.7493 104.152 27.768L104.74 28.062C104.814 28.1086 104.824 28.174 104.768 28.258C104.404 28.818 103.97 29.2286 103.466 29.49C102.962 29.742 102.36 29.868 101.66 29.868C100.978 29.868 100.367 29.7093 99.8255 29.392C99.2842 29.0746 98.8595 28.6313 98.5515 28.062C98.2528 27.4833 98.1035 26.8253 98.1035 26.088C98.1035 25.2946 98.2575 24.604 98.5655 24.016C98.8735 23.4186 99.2935 22.9613 99.8255 22.644C100.367 22.3266 100.974 22.168 101.646 22.168C102.318 22.168 102.906 22.3173 103.41 22.616C103.923 22.9146 104.32 23.3533 104.6 23.932C104.88 24.5013 105.02 25.178 105.02 25.962V26.018C105.02 26.102 105.006 26.1673 104.978 26.214C104.95 26.2513 104.894 26.27 104.81 26.27H99.4475C99.3635 26.27 99.3215 26.34 99.3215 26.48ZM103.606 25.5C103.708 25.5 103.774 25.4906 103.802 25.472C103.83 25.444 103.844 25.388 103.844 25.304C103.844 24.8933 103.755 24.5153 103.578 24.17C103.41 23.8153 103.158 23.5353 102.822 23.33C102.495 23.1153 102.112 23.008 101.674 23.008C101.198 23.008 100.782 23.1293 100.428 23.372C100.073 23.6053 99.8022 23.9133 99.6155 24.296C99.4288 24.6693 99.3402 25.0706 99.3495 25.5H103.606Z" fill="#041028"/>
<path d="M96.3785 29.4901C96.3785 29.5834 96.3598 29.6488 96.3225 29.6861C96.2851 29.7141 96.2198 29.7281 96.1265 29.7281H95.3985C95.3145 29.7281 95.2585 29.7141 95.2305 29.6861C95.2025 29.6581 95.1885 29.6068 95.1885 29.5321L95.2025 19.5361C95.2025 19.4054 95.2585 19.3401 95.3705 19.3401H96.2105C96.3225 19.3401 96.3785 19.4008 96.3785 19.5221V29.4901Z" fill="#041028"/>
<path d="M91.83 28.832C91.1113 29.5226 90.2807 29.868 89.338 29.868C88.61 29.868 88.036 29.686 87.616 29.322C87.2053 28.9486 87 28.454 87 27.838C87 27.0913 87.3127 26.5033 87.938 26.074C88.5727 25.6446 89.4873 25.3926 90.682 25.318L91.774 25.234C91.9327 25.2153 92.012 25.1453 92.012 25.024V24.646C92.012 24.142 91.8533 23.7453 91.536 23.456C91.228 23.1573 90.808 23.008 90.276 23.008C89.4547 23.008 88.7827 23.3813 88.26 24.128C88.232 24.1746 88.204 24.2073 88.176 24.226C88.148 24.2353 88.1107 24.2306 88.064 24.212L87.308 23.96C87.2613 23.9413 87.238 23.9086 87.238 23.862C87.238 23.834 87.252 23.792 87.28 23.736C87.56 23.2413 87.9567 22.8586 88.47 22.588C88.9927 22.308 89.6087 22.168 90.318 22.168C91.2327 22.168 91.9327 22.3826 92.418 22.812C92.9033 23.232 93.146 23.8153 93.146 24.562V29.518C93.146 29.602 93.132 29.658 93.104 29.686C93.076 29.714 93.0247 29.728 92.95 29.728H92.25C92.138 29.728 92.0727 29.6533 92.054 29.504L92.026 28.86C92.0167 28.7946 91.9933 28.762 91.956 28.762C91.9187 28.762 91.8767 28.7853 91.83 28.832ZM92.012 26.172C92.012 26.0226 91.942 25.948 91.802 25.948L90.892 26.032C90.024 26.088 89.352 26.256 88.876 26.536C88.4093 26.816 88.176 27.2033 88.176 27.698C88.176 28.0993 88.316 28.4166 88.596 28.65C88.8853 28.8833 89.268 29 89.744 29C90.0333 29 90.318 28.9486 90.598 28.846C90.878 28.7433 91.1253 28.6033 91.34 28.426C91.5547 28.258 91.718 28.0806 91.83 27.894C91.9513 27.698 92.012 27.5113 92.012 27.334V26.172Z" fill="#041028"/>
<path d="M85.401 20.7121C85.401 20.8054 85.3823 20.8754 85.345 20.9221C85.3076 20.9594 85.2423 20.9781 85.149 20.9781H84.337C84.197 20.9781 84.127 20.8988 84.127 20.7401V19.5641C84.127 19.4148 84.1923 19.3401 84.323 19.3401H85.205C85.261 19.3401 85.3076 19.3588 85.345 19.3961C85.3823 19.4334 85.401 19.4848 85.401 19.5501V20.7121ZM85.345 29.4901C85.345 29.5834 85.3263 29.6488 85.289 29.6861C85.2516 29.7141 85.1863 29.7281 85.093 29.7281H84.379C84.295 29.7281 84.239 29.7141 84.211 29.6861C84.183 29.6581 84.169 29.6068 84.169 29.5321V22.5041C84.169 22.3734 84.225 22.3081 84.337 22.3081H85.191C85.2936 22.3081 85.345 22.3688 85.345 22.4901V29.4901Z" fill="#041028"/>
<path d="M79.6605 22.168C80.3418 22.168 80.9205 22.3266 81.3965 22.644C81.8818 22.9613 82.2691 23.3813 82.5585 23.904L82.5865 24.016C82.5865 24.072 82.5538 24.1046 82.4885 24.114L81.7185 24.296L81.6765 24.31C81.6298 24.31 81.5832 24.2726 81.5365 24.198C81.2378 23.7966 80.9485 23.5026 80.6685 23.316C80.3978 23.1293 80.0852 23.036 79.7305 23.036C79.0025 23.036 78.4238 23.3066 77.9945 23.848C77.5652 24.38 77.3505 25.1033 77.3505 26.018C77.3505 26.942 77.5652 27.67 77.9945 28.202C78.4332 28.734 79.0212 29 79.7585 29C80.1972 29 80.5798 28.8926 80.9065 28.678C81.2425 28.4633 81.5458 28.132 81.8165 27.684C81.8445 27.6373 81.8725 27.614 81.9005 27.614C81.9285 27.6046 81.9612 27.6093 81.9985 27.628L82.6005 27.852C82.6658 27.88 82.6845 27.9406 82.6565 28.034C82.3672 28.5753 81.9705 29.0186 81.4665 29.364C80.9625 29.7 80.3605 29.868 79.6605 29.868C78.9792 29.868 78.3725 29.7093 77.8405 29.392C77.3085 29.0653 76.8932 28.6126 76.5945 28.034C76.2958 27.4553 76.1465 26.7926 76.1465 26.046C76.1465 25.2993 76.2958 24.632 76.5945 24.044C76.8932 23.4466 77.3085 22.9846 77.8405 22.658C78.3818 22.3313 78.9885 22.168 79.6605 22.168Z" fill="#041028"/>
<path d="M71.3076 29.868C70.6076 29.868 69.987 29.7093 69.4456 29.392C68.9136 29.0653 68.4983 28.6126 68.1996 28.034C67.9103 27.4553 67.7656 26.7973 67.7656 26.06C67.7656 25.304 67.915 24.632 68.2136 24.044C68.5216 23.456 68.9416 22.9986 69.4736 22.672C70.015 22.336 70.631 22.168 71.3216 22.168C72.0123 22.168 72.6236 22.336 73.1556 22.672C73.697 22.9986 74.1123 23.456 74.4016 24.044C74.7003 24.632 74.8496 25.2993 74.8496 26.046C74.8496 26.7833 74.7003 27.4413 74.4016 28.02C74.103 28.5986 73.683 29.0513 73.1416 29.378C72.6096 29.7046 71.9983 29.868 71.3076 29.868ZM71.3356 28.986C72.0636 28.986 72.6283 28.7246 73.0296 28.202C73.4403 27.67 73.6456 26.942 73.6456 26.018C73.6456 25.1033 73.4356 24.38 73.0156 23.848C72.605 23.3066 72.0403 23.036 71.3216 23.036C70.5936 23.036 70.0196 23.3066 69.5996 23.848C69.1796 24.38 68.9696 25.1033 68.9696 26.018C68.9696 26.9326 69.1796 27.656 69.5996 28.188C70.0196 28.72 70.5983 28.986 71.3356 28.986Z" fill="#041028"/>
<path d="M65.1252 21.272C64.5279 20.572 63.7345 20.222 62.7452 20.222C62.0452 20.222 61.4945 20.376 61.0932 20.684C60.6919 20.992 60.4912 21.4213 60.4912 21.972C60.4912 22.7 60.9905 23.232 61.9892 23.568L64.0192 24.24C64.8405 24.5106 65.4332 24.8746 65.7972 25.332C66.1705 25.78 66.3572 26.3306 66.3572 26.984C66.3572 27.88 66.0259 28.5846 65.3632 29.098C64.7005 29.6113 63.7952 29.868 62.6472 29.868C61.8072 29.868 61.0652 29.7186 60.4212 29.42C59.7865 29.1213 59.2732 28.6873 58.8812 28.118C58.8439 28.0433 58.8252 27.9966 58.8252 27.978C58.8252 27.9126 58.8719 27.8473 58.9652 27.782L59.4692 27.432C59.5532 27.376 59.6185 27.348 59.6652 27.348C59.7212 27.348 59.7725 27.376 59.8192 27.432C60.2205 27.9453 60.6172 28.3093 61.0092 28.524C61.4012 28.7386 61.9285 28.846 62.5912 28.846C63.3752 28.846 63.9819 28.706 64.4112 28.426C64.8499 28.146 65.0692 27.712 65.0692 27.124C65.0692 26.76 64.9525 26.452 64.7192 26.2C64.4952 25.9386 64.0845 25.696 63.4872 25.472L61.3592 24.744C60.6219 24.492 60.0759 24.1326 59.7212 23.666C59.3759 23.19 59.2032 22.6673 59.2032 22.098C59.2032 21.5193 59.3479 21.0106 59.6372 20.572C59.9359 20.1333 60.3512 19.7973 60.8832 19.564C61.4245 19.3213 62.0452 19.2 62.7452 19.2C63.4265 19.2 64.0425 19.3213 64.5932 19.564C65.1532 19.8066 65.6292 20.1473 66.0212 20.586C66.0679 20.6326 66.0912 20.6793 66.0912 20.726C66.0912 20.7726 66.0679 20.8146 66.0212 20.852L65.3772 21.356C65.3492 21.384 65.3212 21.398 65.2932 21.398C65.2652 21.398 65.2092 21.356 65.1252 21.272Z" fill="#041028"/>
<path fill-rule="evenodd" clip-rule="evenodd" d="M44.6935 33.9883C43.1905 30.2545 38.94 28.4541 35.2062 29.957C35.1827 29.9648 35.1592 29.9805 35.1357 29.9883C36.6465 33.7222 40.897 35.5226 44.6308 34.0118C44.6543 34.004 44.6778 33.9961 44.6935 33.9883Z" fill="#A3EDC6"/>
<path fill-rule="evenodd" clip-rule="evenodd" d="M48.1459 23.4598C43.6528 20.681 37.7585 22.0743 34.9796 26.5674C34.9639 26.5988 34.9405 26.6222 34.9248 26.6536C39.418 29.4324 45.3201 28.0391 48.099 23.5459C48.1146 23.5146 48.1303 23.4911 48.1538 23.4598H48.1459Z" fill="#4DDF9B"/>
<path fill-rule="evenodd" clip-rule="evenodd" d="M46.119 9.45605C39.528 9.79265 34.4634 15.413 34.8 22.004C34.8 22.0431 34.8 22.0823 34.8 22.1214C41.3832 21.7926 46.4556 16.1801 46.119 9.59696C46.119 9.54999 46.119 9.50302 46.1112 9.45605H46.119Z" fill="#45CAA4"/>
<path fill-rule="evenodd" clip-rule="evenodd" d="M33.117 1.61255C27.708 5.97263 26.8625 13.8865 31.2226 19.2955C31.2539 19.3268 31.2774 19.366 31.3087 19.3973C36.7177 15.0372 37.5631 7.12331 33.2031 1.71431C33.1717 1.683 33.1483 1.64386 33.117 1.61255Z" fill="#69C1E4"/>
<path fill-rule="evenodd" clip-rule="evenodd" d="M15.5514 0.728027C13.0465 9.04897 17.7667 17.8239 26.0876 20.3288C26.1424 20.3445 26.1972 20.3601 26.252 20.3758C28.7569 12.0548 24.0446 3.27989 15.7236 0.774994C15.6689 0.759338 15.6141 0.743683 15.5593 0.728027H15.5514Z" fill="#46CCCA"/>
<path fill-rule="evenodd" clip-rule="evenodd" d="M0.404297 13.4169C3.3632 22.7007 13.2888 27.8279 22.5726 24.869C22.6352 24.8533 22.6978 24.8298 22.7526 24.8063C19.7937 15.5304 9.86027 10.4032 0.576508 13.3621C0.521714 13.3778 0.459091 13.4012 0.404297 13.4169Z" fill="#C5EDF3"/>
<path fill-rule="evenodd" clip-rule="evenodd" d="M2.60352 33.1741C8.84226 37.5812 17.4763 36.1017 21.8912 29.863C21.9147 29.8238 21.946 29.7925 21.9695 29.7534C15.7307 25.3385 7.10449 26.8179 2.68962 33.0567C2.65831 33.0958 2.63483 33.135 2.60352 33.1741Z" fill="#46CCCA"/>
<path fill-rule="evenodd" clip-rule="evenodd" d="M12.4355 46.1137C19.6919 46.2937 25.7193 40.5559 25.8993 33.2996C25.8993 33.2526 25.8993 33.2056 25.8993 33.1587C18.643 32.9786 12.6156 38.7164 12.4355 45.9728C12.4355 46.0197 12.4355 46.0667 12.4355 46.1137Z" fill="#69C1E4"/>
<path fill-rule="evenodd" clip-rule="evenodd" d="M27.8645 48.728C32.2011 45.3933 33.0152 39.1702 29.6727 34.8336C29.6492 34.8102 29.6336 34.7789 29.6101 34.7554C25.2735 38.09 24.4594 44.3053 27.794 48.6419C27.8175 48.6732 27.8332 48.6967 27.8567 48.728H27.8645Z" fill="#45CAA4"/>
<path fill-rule="evenodd" clip-rule="evenodd" d="M37.4217 43.0764C39.3943 38.7946 37.5235 33.7222 33.2417 31.7418C33.2104 31.7261 33.1869 31.7183 33.1556 31.7026C31.183 35.9844 33.0538 41.0568 37.3356 43.0294C37.3669 43.0451 37.3904 43.0529 37.4217 43.0686V43.0764Z" fill="#4DDF9B"/>
</svg>
