<svg xmlns="http://www.w3.org/2000/svg" width="69.73" height="51.519" viewBox="0 0 69.73 51.519">
  <g id="belgiumbe-colour-rvb" transform="translate(-193.029 -263.148)">
    <path id="Path_3589" data-name="Path 3589" d="M197.6,292.581a4.667,4.667,0,1,1,4.5-4.63,4.552,4.552,0,0,1-4.5,4.63" transform="translate(0 21.563)" fill="#1a171b"/>
    <path id="Path_3590" data-name="Path 3590" d="M257.27,296.727c0-10.547-6.023-17.509-15.212-17.509a14.533,14.533,0,0,0-13.807,9.341c-2.578-6.244-8.57-9.341-14.891-9.341a23.2,23.2,0,0,0-6.6,1.005V263.148h-8.609v49.079a22.911,22.911,0,0,0,11.192,2.439c8.087,0,15.233-3.82,18.441-10.584,2.081,6.006,7.084,10.584,15.714,10.584a21.751,21.751,0,0,0,12.342-3.733l-2.081-5.523a17.708,17.708,0,0,1-8.827,2.367c-5.235,0-9.4-3.515-9.542-8.537H257.27v-2.514" transform="translate(5.489)" fill="#1a171b"/>
    <path id="Path_3591" data-name="Path 3591" d="M216.51,284.372c0,6.317-4.234,11.2-9.977,11.2a12.48,12.48,0,0,1-4.232-.647V275.477a11.592,11.592,0,0,1,4.808-1.078c5.882,0,9.4,4.665,9.4,9.973" transform="translate(9.944 12.067)" fill="#ffe047"/>
    <path id="Path_3592" data-name="Path 3592" d="M216.51,284.372c0,6.317-4.234,11.2-9.977,11.2a12.48,12.48,0,0,1-4.232-.647V275.477a11.592,11.592,0,0,1,4.808-1.078C212.991,274.4,216.51,279.064,216.51,284.372Z" transform="translate(9.944 12.067)" fill="none" stroke="#ffe047" stroke-width="0.12"/>
    <path id="Path_3593" data-name="Path 3593" d="M229.212,281.479h-13.2c0-3.73,2.51-7.459,6.673-7.459,4.373,0,6.387,3.8,6.526,7.459" transform="translate(24.65 11.66)" fill="#e3252a"/>
    <path id="Path_3594" data-name="Path 3594" d="M229.212,281.479h-13.2c0-3.73,2.51-7.459,6.673-7.459C227.058,274.02,229.073,277.823,229.212,281.479Z" transform="translate(24.65 11.66)" fill="none" stroke="#e3252a" stroke-width="0.12"/>
  </g>
</svg>
