<svg xmlns="http://www.w3.org/2000/svg" width="353.821" height="80.842" viewBox="0 0 353.821 80.842">
  <g id="EN_Funded_by_the_European_Union_RGB_POS" transform="translate(0)">
    <rect id="Rectangle_439" data-name="Rectangle 439" width="119.056" height="80.842" transform="translate(0 0)" fill="#fff"/>
    <rect id="Rectangle_440" data-name="Rectangle 440" width="114.474" height="76.317" transform="translate(2.293 2.216)" fill="#039"/>
    <path id="Path_6945" data-name="Path 6945" d="M149.17,45.61l2.418-1.764L154,45.61l-.916-2.854,2.45-1.76h-3.023l-.924-2.886L150.663,41l-3.023,0,2.45,1.76-.92,2.854" transform="translate(-92.082 -26.764)" fill="#fc0"/>
    <path id="Path_6946" data-name="Path 6946" d="M118.2,53.924l2.414-1.764,2.414,1.764-.916-2.854,2.45-1.76h-3.023l-.924-2.89-.928,2.894-3.023,0,2.454,1.76-.916,2.854" transform="translate(-73.607 -31.719)" fill="#fc0"/>
    <path id="Path_6947" data-name="Path 6947" d="M97.958,69.13l-.924,2.894-3.023,0,2.45,1.764-.916,2.85,2.414-1.764,2.414,1.764-.916-2.85,2.45-1.764H98.882l-.924-2.89" transform="translate(-60.1 -45.262)" fill="#fc0"/>
    <path id="Path_6948" data-name="Path 6948" d="M89.642,105.8l2.414,1.764-.92-2.85,2.454-1.764H90.566l-.924-2.89-.928,2.894-3.023,0,2.454,1.764-.92,2.85,2.418-1.764" transform="translate(-55.138 -63.708)" fill="#fc0"/>
    <path id="Path_6949" data-name="Path 6949" d="M98.882,133.976l-.924-2.886-.924,2.89-3.023,0,2.45,1.764-.916,2.85,2.414-1.764,2.414,1.764-.916-2.85,2.45-1.764H98.882" transform="translate(-60.1 -82.212)" fill="#fc0"/>
    <path id="Path_6950" data-name="Path 6950" d="M121.586,156.682l-.928-2.882-.924,2.886-3.023,0,2.454,1.764-.92,2.85,2.418-1.76,2.414,1.76-.92-2.85,2.454-1.764h-3.023" transform="translate(-73.637 -95.756)" fill="#fc0"/>
    <path id="Path_6951" data-name="Path 6951" d="M152.516,164.906l-.928-2.886-.924,2.89-3.023,0,2.454,1.764-.92,2.85,2.418-1.764,2.414,1.764-.92-2.85,2.454-1.764h-3.023" transform="translate(-92.082 -100.658)" fill="#fc0"/>
    <path id="Path_6952" data-name="Path 6952" d="M183.452,156.682l-.924-2.882-.928,2.886-3.019,0,2.45,1.764-.92,2.85,2.418-1.76,2.414,1.76-.92-2.85,2.454-1.764h-3.023" transform="translate(-110.533 -95.756)" fill="#fc0"/>
    <path id="Path_6953" data-name="Path 6953" d="M206.156,133.976l-.928-2.886-.928,2.89-3.019,0,2.454,1.764-.92,2.85,2.414-1.764,2.414,1.764-.92-2.85,2.454-1.764h-3.019" transform="translate(-124.071 -82.212)" fill="#fc0"/>
    <path id="Path_6954" data-name="Path 6954" d="M217.4,102.866h-3.023l-.928-2.886-.924,2.89-3.023,0,2.454,1.764-.92,2.85,2.414-1.764,2.414,1.764-.916-2.85,2.454-1.764" transform="translate(-128.973 -63.66)" fill="#fc0"/>
    <path id="Path_6955" data-name="Path 6955" d="M202.81,76.546l2.418-1.76,2.414,1.76-.92-2.85,2.454-1.76h-3.019l-.928-2.886-.928,2.89-3.019,0,2.454,1.76-.924,2.85" transform="translate(-124.071 -45.215)" fill="#fc0"/>
    <path id="Path_6956" data-name="Path 6956" d="M182.608,46.43l-.924,2.89-3.023,0,2.45,1.764-.916,2.854,2.418-1.768,2.414,1.768-.92-2.854,2.454-1.764h-3.027l-.924-2.886" transform="translate(-110.581 -31.725)" fill="#fc0"/>
    <g id="Group_5890" data-name="Group 5890" transform="translate(130.919 63.522)">
      <path id="Path_6957" data-name="Path 6957" d="M334.34,182.727V167.99h2l7.742,11.568V167.99h1.869v14.737h-2l-7.738-11.581v11.581h-1.869Z" transform="translate(-334.34 -167.74)" fill="#58595b"/>
      <path id="Path_6958" data-name="Path 6958" d="M377.061,184.93l1.869.23a4.54,4.54,0,0,1-1.639,2.543,4.94,4.94,0,0,1-3.056.9,4.88,4.88,0,0,1-3.714-1.441,5.624,5.624,0,0,1-1.372-4.045,6.005,6.005,0,0,1,1.389-4.182,4.689,4.689,0,0,1,3.6-1.489,4.5,4.5,0,0,1,3.5,1.457,5.792,5.792,0,0,1,1.356,4.1c0,.109,0,.266-.008.484h-7.96a4.114,4.114,0,0,0,.993,2.692,2.965,2.965,0,0,0,2.232.936,2.779,2.779,0,0,0,1.7-.521,3.465,3.465,0,0,0,1.114-1.667ZM371.12,182h5.962a3.639,3.639,0,0,0-.682-2.022,2.77,2.77,0,0,0-2.24-1.045,2.867,2.867,0,0,0-2.095.836,3.31,3.31,0,0,0-.94,2.232Z" transform="translate(-355.099 -173.381)" fill="#58595b"/>
      <path id="Path_6959" data-name="Path 6959" d="M396.02,188.726l3.9-5.55-3.609-5.126h2.26l1.639,2.5c.307.476.557.876.743,1.195.295-.444.565-.836.815-1.175l1.8-2.523h2.159l-3.689,5.025,3.972,5.651h-2.22l-2.192-3.318-.581-.9-2.805,4.21H396.02Z" transform="translate(-371.123 -173.739)" fill="#58595b"/>
      <path id="Path_6960" data-name="Path 6960" d="M426.989,181.6l.262,1.6a6.587,6.587,0,0,1-1.368.161,3.125,3.125,0,0,1-1.53-.311,1.714,1.714,0,0,1-.763-.819,6.412,6.412,0,0,1-.222-2.135v-6.144H422.04V172.54h1.328V169.9l1.8-1.086v3.73h1.82v1.409h-1.82v6.24a3.082,3.082,0,0,0,.1.993.729.729,0,0,0,.311.351,1.234,1.234,0,0,0,.618.129,6.316,6.316,0,0,0,.8-.069Z" transform="translate(-386.64 -168.229)" fill="#58595b"/>
      <path id="Path_6961" data-name="Path 6961" d="M445.421,176.577V174.85l6.24-.012v5.469a11,11,0,0,1-2.967,1.724,8.736,8.736,0,0,1-3.136.577,8.383,8.383,0,0,1-3.944-.928,6.181,6.181,0,0,1-2.68-2.688,8.431,8.431,0,0,1-.9-3.932,9.053,9.053,0,0,1,.9-4.016,5.978,5.978,0,0,1,2.587-2.769,8.132,8.132,0,0,1,3.891-.9,7.743,7.743,0,0,1,2.89.517,4.838,4.838,0,0,1,2.026,1.441,6.41,6.41,0,0,1,1.114,2.414l-1.76.484a5.471,5.471,0,0,0-.823-1.768,3.39,3.39,0,0,0-1.409-1.029,5.158,5.158,0,0,0-2.03-.387,6,6,0,0,0-2.313.408,4.343,4.343,0,0,0-1.574,1.07,4.991,4.991,0,0,0-.928,1.457,7.72,7.72,0,0,0-.561,2.967,7.205,7.205,0,0,0,.678,3.3,4.339,4.339,0,0,0,1.974,1.97,6.129,6.129,0,0,0,2.753.642,6.529,6.529,0,0,0,2.474-.488,6.277,6.277,0,0,0,1.828-1.041v-2.745h-4.331Z" transform="translate(-396.176 -167.37)" fill="#58595b"/>
      <path id="Path_6962" data-name="Path 6962" d="M484.771,184.93l1.869.23A4.54,4.54,0,0,1,485,187.7a4.94,4.94,0,0,1-3.056.9,4.879,4.879,0,0,1-3.714-1.441,5.625,5.625,0,0,1-1.372-4.045,6.005,6.005,0,0,1,1.389-4.182,4.689,4.689,0,0,1,3.6-1.489,4.5,4.5,0,0,1,3.5,1.457,5.792,5.792,0,0,1,1.356,4.1c0,.109,0,.266-.008.484h-7.96a4.114,4.114,0,0,0,.993,2.692,2.965,2.965,0,0,0,2.232.936,2.779,2.779,0,0,0,1.7-.521,3.466,3.466,0,0,0,1.114-1.667ZM478.83,182h5.962a3.639,3.639,0,0,0-.682-2.022,2.77,2.77,0,0,0-2.24-1.045,2.867,2.867,0,0,0-2.095.836,3.311,3.311,0,0,0-.94,2.232Z" transform="translate(-419.332 -173.381)" fill="#58595b"/>
      <path id="Path_6963" data-name="Path 6963" d="M506.72,188.369V177.692h1.631v1.518a3.834,3.834,0,0,1,3.4-1.76,4.5,4.5,0,0,1,1.776.347,2.76,2.76,0,0,1,1.211.908,3.472,3.472,0,0,1,.561,1.336,10.169,10.169,0,0,1,.1,1.76v6.563H513.59V181.87a4.877,4.877,0,0,0-.21-1.655,1.754,1.754,0,0,0-.751-.876,2.38,2.38,0,0,0-1.259-.327,2.928,2.928,0,0,0-1.994.735,3.613,3.613,0,0,0-.84,2.785v5.829h-1.808Z" transform="translate(-437.139 -173.381)" fill="#58595b"/>
      <path id="Path_6964" data-name="Path 6964" d="M541.491,184.93l1.869.23a4.54,4.54,0,0,1-1.639,2.543,4.94,4.94,0,0,1-3.056.9,4.879,4.879,0,0,1-3.714-1.441,5.624,5.624,0,0,1-1.372-4.045,6.005,6.005,0,0,1,1.389-4.182,4.689,4.689,0,0,1,3.6-1.489,4.5,4.5,0,0,1,3.5,1.457,5.792,5.792,0,0,1,1.356,4.1c0,.109,0,.266-.008.484h-7.96a4.114,4.114,0,0,0,.993,2.692,2.965,2.965,0,0,0,2.232.936,2.779,2.779,0,0,0,1.7-.521,3.466,3.466,0,0,0,1.114-1.667ZM535.55,182h5.962a3.639,3.639,0,0,0-.682-2.022,2.77,2.77,0,0,0-2.24-1.045,2.867,2.867,0,0,0-2.095.836,3.31,3.31,0,0,0-.941,2.232Z" transform="translate(-453.157 -173.381)" fill="#58595b"/>
      <path id="Path_6965" data-name="Path 6965" d="M563.39,188.369V177.692h1.627v1.619a4.421,4.421,0,0,1,1.15-1.5,2,2,0,0,1,1.162-.363,3.541,3.541,0,0,1,1.861.581l-.622,1.679a2.582,2.582,0,0,0-1.328-.392,1.72,1.72,0,0,0-1.066.355,1.937,1.937,0,0,0-.674.989,7.021,7.021,0,0,0-.3,2.111v5.591H563.39Z" transform="translate(-470.935 -173.381)" fill="#58595b"/>
      <path id="Path_6966" data-name="Path 6966" d="M586.5,187.049a6.766,6.766,0,0,1-1.933,1.207,5.584,5.584,0,0,1-1.994.351,3.878,3.878,0,0,1-2.7-.86,2.835,2.835,0,0,1-.944-2.2,2.924,2.924,0,0,1,.355-1.433,2.955,2.955,0,0,1,.936-1.041,4.342,4.342,0,0,1,1.3-.593,12.756,12.756,0,0,1,1.607-.27,16.724,16.724,0,0,0,3.225-.622c.008-.246.008-.4.008-.472a1.992,1.992,0,0,0-.513-1.558,3.03,3.03,0,0,0-2.059-.614,3.187,3.187,0,0,0-1.885.448,2.747,2.747,0,0,0-.9,1.582l-1.768-.242a4.33,4.33,0,0,1,.8-1.833,3.505,3.505,0,0,1,1.6-1.078,7.164,7.164,0,0,1,2.422-.375,6.391,6.391,0,0,1,2.22.323,2.928,2.928,0,0,1,1.255.807,2.844,2.844,0,0,1,.561,1.231,10.19,10.19,0,0,1,.089,1.667v2.414a25.615,25.615,0,0,0,.117,3.193,4.052,4.052,0,0,0,.456,1.28h-1.889a3.956,3.956,0,0,1-.363-1.316Zm-.149-4.04a13.3,13.3,0,0,1-2.955.682,6.74,6.74,0,0,0-1.578.363,1.615,1.615,0,0,0-.714.589,1.6,1.6,0,0,0,.3,2.067,2.347,2.347,0,0,0,1.6.484,3.749,3.749,0,0,0,1.861-.456,2.813,2.813,0,0,0,1.195-1.251,4.381,4.381,0,0,0,.291-1.808v-.662Z" transform="translate(-480.196 -173.381)" fill="#58595b"/>
      <path id="Path_6967" data-name="Path 6967" d="M611.269,181.6l.262,1.6a6.587,6.587,0,0,1-1.368.161,3.126,3.126,0,0,1-1.53-.311,1.714,1.714,0,0,1-.763-.819,6.413,6.413,0,0,1-.222-2.135v-6.144H606.32V172.54h1.328V169.9l1.8-1.086v3.73h1.82v1.409h-1.82v6.24a3.08,3.08,0,0,0,.1.993.729.729,0,0,0,.311.351,1.235,1.235,0,0,0,.618.129,6.315,6.315,0,0,0,.8-.069Z" transform="translate(-496.536 -168.229)" fill="#58595b"/>
      <path id="Path_6968" data-name="Path 6968" d="M622.99,170.063V167.98H624.8v2.083Zm0,12.654V172.041H624.8v10.676Z" transform="translate(-506.477 -167.734)" fill="#58595b"/>
      <path id="Path_6969" data-name="Path 6969" d="M632.62,183.028a5.5,5.5,0,0,1,1.647-4.392,4.965,4.965,0,0,1,3.358-1.187,4.8,4.8,0,0,1,3.6,1.441,5.479,5.479,0,0,1,1.4,3.984,7.069,7.069,0,0,1-.618,3.241,4.354,4.354,0,0,1-1.8,1.833,5.236,5.236,0,0,1-2.579.654A4.806,4.806,0,0,1,634,187.166a5.741,5.741,0,0,1-1.38-4.141Zm1.861,0a4.545,4.545,0,0,0,.9,3.072,2.977,2.977,0,0,0,4.493,0,4.641,4.641,0,0,0,.9-3.124,4.4,4.4,0,0,0-.9-3,2.87,2.87,0,0,0-2.236-1.021,2.9,2.9,0,0,0-2.252,1.013,4.527,4.527,0,0,0-.9,3.068Z" transform="translate(-512.22 -173.381)" fill="#58595b"/>
      <path id="Path_6970" data-name="Path 6970" d="M662.65,188.369V177.692h1.631v1.518a3.835,3.835,0,0,1,3.4-1.76,4.5,4.5,0,0,1,1.776.347,2.76,2.76,0,0,1,1.211.908,3.471,3.471,0,0,1,.561,1.336,10.169,10.169,0,0,1,.1,1.76v6.563H669.52V181.87a4.875,4.875,0,0,0-.21-1.655,1.754,1.754,0,0,0-.751-.876,2.38,2.38,0,0,0-1.259-.327,2.928,2.928,0,0,0-1.994.735,3.613,3.613,0,0,0-.84,2.785v5.829h-1.808Z" transform="translate(-530.129 -173.381)" fill="#58595b"/>
      <path id="Path_6971" data-name="Path 6971" d="M691.69,182.727V167.99h10.656v1.74H693.64v4.513h8.154v1.728H693.64v5.017h9.046v1.74Z" transform="translate(-547.447 -167.74)" fill="#58595b"/>
      <path id="Path_6972" data-name="Path 6972" d="M735.313,167.984h1.95V176.5a10.071,10.071,0,0,1-.5,3.528,4.313,4.313,0,0,1-1.816,2.127,6.441,6.441,0,0,1-3.443.819,6.951,6.951,0,0,1-3.387-.714,4.079,4.079,0,0,1-1.881-2.067,9.835,9.835,0,0,1-.561-3.693v-8.513h1.95v8.5a8.287,8.287,0,0,0,.355,2.83,2.7,2.7,0,0,0,1.227,1.4,4.273,4.273,0,0,0,2.127.492,4.06,4.06,0,0,0,3.068-.977q.914-.975.916-3.75v-8.5Z" transform="translate(-567.711 -167.734)" fill="#58595b"/>
    </g>
    <g id="Group_5891" data-name="Group 5891" transform="translate(129.538 2.208)">
      <path id="Path_6973" data-name="Path 6973" d="M334.384,32.53V15.48H346.07v2.882h-8.246V22.4h7.116v2.882h-7.116v7.245H334.38Z" transform="translate(-332.983 -15.476)" fill="#039"/>
      <path id="Path_6974" data-name="Path 6974" d="M378.344,39.478V37.629a4.764,4.764,0,0,1-1.772,1.558,4.97,4.97,0,0,1-2.321.569,4.581,4.581,0,0,1-2.232-.545,3.226,3.226,0,0,1-1.429-1.534,6.85,6.85,0,0,1-.44-2.733V27.13h3.266v5.675A15.634,15.634,0,0,0,373.6,36a1.727,1.727,0,0,0,.658.928,2.017,2.017,0,0,0,1.211.343,2.58,2.58,0,0,0,1.5-.46,2.349,2.349,0,0,0,.908-1.138,13.332,13.332,0,0,0,.242-3.33V27.13h3.266V39.478h-3.035Z" transform="translate(-354.315 -22.423)" fill="#039"/>
      <path id="Path_6975" data-name="Path 6975" d="M417.548,39.06h-3.27v-6.3a9.664,9.664,0,0,0-.21-2.587,1.825,1.825,0,0,0-.682-.912,1.937,1.937,0,0,0-1.134-.327,2.607,2.607,0,0,0-1.522.464,2.356,2.356,0,0,0-.924,1.231,10.688,10.688,0,0,0-.25,2.838V39.06H406.29V26.713h3.035v1.812a5.066,5.066,0,0,1,6.047-1.707,3.3,3.3,0,0,1,1.356.993,3.542,3.542,0,0,1,.638,1.372,10.385,10.385,0,0,1,.182,2.2v7.673Z" transform="translate(-375.867 -22.006)" fill="#039"/>
      <path id="Path_6976" data-name="Path 6976" d="M452.637,32.524H449.6V30.712a4.876,4.876,0,0,1-1.784,1.574,4.6,4.6,0,0,1-2.075.517,4.706,4.706,0,0,1-3.645-1.715A6.974,6.974,0,0,1,440.58,26.3a6.98,6.98,0,0,1,1.477-4.775,4.814,4.814,0,0,1,3.734-1.635,4.618,4.618,0,0,1,3.58,1.72V15.47h3.269V32.516Zm-8.723-6.442a5.68,5.68,0,0,0,.545,2.862,2.473,2.473,0,0,0,2.208,1.28,2.4,2.4,0,0,0,1.917-.961,4.413,4.413,0,0,0,.791-2.866,4.845,4.845,0,0,0-.767-3.064,2.525,2.525,0,0,0-3.915-.012,4.172,4.172,0,0,0-.787,2.761Z" transform="translate(-396.316 -15.47)" fill="#039"/>
      <path id="Path_6977" data-name="Path 6977" d="M484.181,35.135l3.257.545a5.348,5.348,0,0,1-1.982,2.729,5.819,5.819,0,0,1-3.391.936,5.527,5.527,0,0,1-4.767-2.1,7.056,7.056,0,0,1-1.219-4.254,6.816,6.816,0,0,1,1.6-4.807,5.285,5.285,0,0,1,4.057-1.74,5.473,5.473,0,0,1,4.347,1.82q1.592,1.822,1.522,5.574h-8.186a3.3,3.3,0,0,0,.791,2.26,2.478,2.478,0,0,0,1.885.807,2.01,2.01,0,0,0,1.292-.42,2.572,2.572,0,0,0,.791-1.348Zm.186-3.3a3.134,3.134,0,0,0-.735-2.155,2.36,2.36,0,0,0-3.467.04,3.023,3.023,0,0,0-.686,2.115h4.884Z" transform="translate(-417.487 -22.012)" fill="#039"/>
      <path id="Path_6978" data-name="Path 6978" d="M521.487,32.524h-3.035V30.712a4.875,4.875,0,0,1-1.784,1.574,4.6,4.6,0,0,1-2.075.517,4.706,4.706,0,0,1-3.645-1.715A6.974,6.974,0,0,1,509.43,26.3a6.98,6.98,0,0,1,1.477-4.775,4.813,4.813,0,0,1,3.734-1.635,4.618,4.618,0,0,1,3.58,1.72V15.47h3.269V32.516Zm-8.723-6.442a5.681,5.681,0,0,0,.545,2.862,2.473,2.473,0,0,0,2.208,1.28,2.4,2.4,0,0,0,1.917-.961,4.413,4.413,0,0,0,.791-2.866,4.845,4.845,0,0,0-.767-3.064,2.525,2.525,0,0,0-3.915-.012,4.172,4.172,0,0,0-.787,2.761Z" transform="translate(-437.375 -15.47)" fill="#039"/>
      <path id="Path_6979" data-name="Path 6979" d="M563.33,32.53V15.48h3.27v6.139a4.624,4.624,0,0,1,3.58-1.72,4.814,4.814,0,0,1,3.734,1.635,6.76,6.76,0,0,1,1.477,4.69,7.254,7.254,0,0,1-1.505,4.872,4.7,4.7,0,0,1-3.657,1.707,4.535,4.535,0,0,1-2.087-.529,4.944,4.944,0,0,1-1.772-1.566v1.812h-3.035Zm3.245-6.442a5.249,5.249,0,0,0,.605,2.838,2.584,2.584,0,0,0,2.256,1.3,2.31,2.31,0,0,0,1.845-.924,4.546,4.546,0,0,0,.763-2.914,4.814,4.814,0,0,0-.767-3.052,2.54,2.54,0,0,0-3.919-.024,4.187,4.187,0,0,0-.779,2.773Z" transform="translate(-469.518 -15.476)" fill="#039"/>
      <path id="Path_6980" data-name="Path 6980" d="M595.88,27.114h3.475l2.955,8.767,2.882-8.767h3.383L604.215,39l-.779,2.151a8.773,8.773,0,0,1-.82,1.651,3.562,3.562,0,0,1-.9.924,3.92,3.92,0,0,1-1.243.553,6.4,6.4,0,0,1-1.667.2,8.641,8.641,0,0,1-1.849-.2l-.291-2.559a7.212,7.212,0,0,0,1.385.149,2.052,2.052,0,0,0,1.687-.67,4.637,4.637,0,0,0,.836-1.7l-4.7-12.384Z" transform="translate(-488.93 -22.412)" fill="#039"/>
      <path id="Path_6981" data-name="Path 6981" d="M337.935,91.485v2.6H335.7v4.977a12.1,12.1,0,0,0,.065,1.764.724.724,0,0,0,.291.412.915.915,0,0,0,.553.161,4.245,4.245,0,0,0,1.316-.315l.279,2.535a6.466,6.466,0,0,1-2.583.488,4.172,4.172,0,0,1-1.594-.295,2.33,2.33,0,0,1-1.041-.767,3.015,3.015,0,0,1-.46-1.271,15.973,15.973,0,0,1-.1-2.3V94.093h-1.5v-2.6h1.5V89.035L335.7,87.13v4.359h2.232Z" transform="translate(-330.92 -58.205)" fill="#039"/>
      <path id="Path_6982" data-name="Path 6982" d="M357.166,86.28v6.269a4.89,4.89,0,0,1,5.813-1.429,3.344,3.344,0,0,1,1.368,1.07,3.909,3.909,0,0,1,.63,1.441,12.832,12.832,0,0,1,.169,2.454v7.245h-3.27V96.807a9.63,9.63,0,0,0-.186-2.466,1.629,1.629,0,0,0-.658-.832,2.107,2.107,0,0,0-1.179-.307,2.725,2.725,0,0,0-1.453.4,2.276,2.276,0,0,0-.936,1.191,7.109,7.109,0,0,0-.3,2.353v6.188H353.9V86.284h3.266Z" transform="translate(-344.624 -57.698)" fill="#039"/>
      <path id="Path_6983" data-name="Path 6983" d="M395.711,105.929l3.257.545a5.321,5.321,0,0,1-1.982,2.725,5.819,5.819,0,0,1-3.391.936,5.527,5.527,0,0,1-4.767-2.1,7.064,7.064,0,0,1-1.219-4.254,6.815,6.815,0,0,1,1.6-4.807,5.285,5.285,0,0,1,4.057-1.74,5.473,5.473,0,0,1,4.347,1.82q1.592,1.822,1.522,5.574h-8.186a3.3,3.3,0,0,0,.791,2.26,2.465,2.465,0,0,0,1.885.807,2.01,2.01,0,0,0,1.292-.42,2.556,2.556,0,0,0,.791-1.348Zm.186-3.3a3.134,3.134,0,0,0-.735-2.155,2.36,2.36,0,0,0-3.467.04,3.016,3.016,0,0,0-.686,2.115h4.884Z" transform="translate(-364.727 -64.228)" fill="#039"/>
      <path id="Path_6984" data-name="Path 6984" d="M439.214,103.336V86.29h12.638v2.882h-9.2V92.95h8.557v2.874h-8.557v4.642h9.522v2.874H439.21Z" transform="translate(-395.499 -57.704)" fill="#039"/>
      <path id="Path_6985" data-name="Path 6985" d="M486.554,110.278v-1.849a4.764,4.764,0,0,1-1.772,1.558,4.97,4.97,0,0,1-2.321.569,4.581,4.581,0,0,1-2.232-.545,3.226,3.226,0,0,1-1.429-1.534,6.85,6.85,0,0,1-.44-2.733V97.93h3.265v5.675a15.634,15.634,0,0,0,.182,3.193,1.727,1.727,0,0,0,.658.928,2.017,2.017,0,0,0,1.211.343,2.58,2.58,0,0,0,1.5-.46,2.348,2.348,0,0,0,.908-1.138,13.331,13.331,0,0,0,.242-3.33V97.93h3.265v12.352h-3.035Z" transform="translate(-418.846 -64.645)" fill="#039"/>
      <path id="Path_6986" data-name="Path 6986" d="M517.48,109.86h-3.27V97.509h3.035v1.756a5.286,5.286,0,0,1,1.4-1.639,2.586,2.586,0,0,1,1.413-.4,4.146,4.146,0,0,1,2.151.618L521.2,100.7a2.877,2.877,0,0,0-1.534-.537,1.774,1.774,0,0,0-1.163.379,2.563,2.563,0,0,0-.751,1.364,19.413,19.413,0,0,0-.275,4.141v3.814Z" transform="translate(-440.226 -64.228)" fill="#039"/>
      <path id="Path_6987" data-name="Path 6987" d="M535.65,103.511a6.666,6.666,0,0,1,.8-3.152,5.493,5.493,0,0,1,2.273-2.325,6.724,6.724,0,0,1,3.286-.8,6.161,6.161,0,0,1,4.594,1.82,6.284,6.284,0,0,1,1.792,4.6,6.38,6.38,0,0,1-1.808,4.646,6.124,6.124,0,0,1-4.553,1.845,7.152,7.152,0,0,1-3.237-.767,5.287,5.287,0,0,1-2.345-2.248A7.524,7.524,0,0,1,535.65,103.511Zm3.35.174a4.091,4.091,0,0,0,.872,2.813,2.853,2.853,0,0,0,4.3,0,4.15,4.15,0,0,0,.868-2.838,4.016,4.016,0,0,0-.868-2.789,2.853,2.853,0,0,0-4.3,0A4.091,4.091,0,0,0,539,103.684Z" transform="translate(-453.011 -64.228)" fill="#039"/>
      <path id="Path_6988" data-name="Path 6988" d="M573.33,97.509h3.047v1.812a4.538,4.538,0,0,1,1.6-1.51,4.419,4.419,0,0,1,2.244-.581,4.709,4.709,0,0,1,3.653,1.687,6.821,6.821,0,0,1,1.5,4.7,7.132,7.132,0,0,1-1.51,4.807,4.716,4.716,0,0,1-3.665,1.715,4.162,4.162,0,0,1-1.853-.408,6.226,6.226,0,0,1-1.752-1.4v6.22h-3.27V97.509Zm3.233,5.966a4.763,4.763,0,0,0,.823,3.076,2.527,2.527,0,0,0,2.01.993,2.325,2.325,0,0,0,1.9-.912,4.7,4.7,0,0,0,.755-3,4.444,4.444,0,0,0-.779-2.882,2.4,2.4,0,0,0-1.929-.94,2.553,2.553,0,0,0-1.99.924,4.112,4.112,0,0,0-.791,2.741Z" transform="translate(-475.482 -64.228)" fill="#039"/>
      <path id="Path_6989" data-name="Path 6989" d="M615.351,105.929l3.257.545a5.32,5.32,0,0,1-1.982,2.725,5.819,5.819,0,0,1-3.391.936,5.527,5.527,0,0,1-4.767-2.1,7.064,7.064,0,0,1-1.219-4.254,6.816,6.816,0,0,1,1.6-4.807,5.285,5.285,0,0,1,4.057-1.74,5.473,5.473,0,0,1,4.347,1.82q1.592,1.822,1.522,5.574h-8.186a3.3,3.3,0,0,0,.791,2.26,2.465,2.465,0,0,0,1.885.807,2.01,2.01,0,0,0,1.292-.42,2.556,2.556,0,0,0,.791-1.348Zm.186-3.3a3.134,3.134,0,0,0-.735-2.155,2.36,2.36,0,0,0-3.467.04,3.016,3.016,0,0,0-.686,2.115h4.884Z" transform="translate(-495.71 -64.228)" fill="#039"/>
      <path id="Path_6990" data-name="Path 6990" d="M643.576,101.275l-2.967-.533a4.635,4.635,0,0,1,1.719-2.652,6.3,6.3,0,0,1,3.629-.86,7.865,7.865,0,0,1,3.257.517,3.238,3.238,0,0,1,1.506,1.312,6.748,6.748,0,0,1,.436,2.926l-.036,3.814a13.22,13.22,0,0,0,.157,2.4,6.867,6.867,0,0,0,.589,1.659h-3.233c-.085-.218-.19-.537-.315-.965-.052-.194-.093-.323-.117-.383a5.866,5.866,0,0,1-1.792,1.219,5.158,5.158,0,0,1-2.034.408,4.23,4.23,0,0,1-3.007-1.033,3.446,3.446,0,0,1-1.1-2.616,3.487,3.487,0,0,1,.5-1.865,3.28,3.28,0,0,1,1.4-1.255,10.97,10.97,0,0,1,2.6-.763,17.645,17.645,0,0,0,3.177-.8v-.327a1.693,1.693,0,0,0-.464-1.344,2.8,2.8,0,0,0-1.756-.4,2.33,2.33,0,0,0-1.36.343,2.383,2.383,0,0,0-.791,1.2Zm4.371,2.652a19.935,19.935,0,0,1-1.99.5,5.991,5.991,0,0,0-1.78.569,1.358,1.358,0,0,0-.638,1.15,1.59,1.59,0,0,0,.513,1.187,1.777,1.777,0,0,0,1.3.5,2.838,2.838,0,0,0,1.687-.581,2.047,2.047,0,0,0,.779-1.082,6.471,6.471,0,0,0,.129-1.594v-.65Z" transform="translate(-515.402 -64.228)" fill="#039"/>
      <path id="Path_6991" data-name="Path 6991" d="M686.418,109.848h-3.27v-6.3a9.662,9.662,0,0,0-.21-2.587,1.825,1.825,0,0,0-.682-.912,1.937,1.937,0,0,0-1.134-.327,2.608,2.608,0,0,0-1.522.464,2.357,2.357,0,0,0-.924,1.231,10.685,10.685,0,0,0-.25,2.838v5.595H675.16V97.493H678.2V99.3a5.066,5.066,0,0,1,6.047-1.707,3.3,3.3,0,0,1,1.356.993,3.541,3.541,0,0,1,.638,1.372,10.4,10.4,0,0,1,.182,2.2v7.673Z" transform="translate(-536.209 -64.216)" fill="#039"/>
      <path id="Path_6992" data-name="Path 6992" d="M727.65,86.28h3.443v9.235a19.2,19.2,0,0,0,.129,2.85,2.73,2.73,0,0,0,1.054,1.679,3.654,3.654,0,0,0,2.273.634,3.494,3.494,0,0,0,2.208-.6,2.364,2.364,0,0,0,.9-1.469,19.071,19.071,0,0,0,.153-2.894V86.288h3.443v8.953a23.1,23.1,0,0,1-.279,4.339,4.8,4.8,0,0,1-1.029,2.139,5.2,5.2,0,0,1-2.006,1.389,8.752,8.752,0,0,1-3.278.517,9.472,9.472,0,0,1-3.706-.565,5.3,5.3,0,0,1-1.994-1.465,4.684,4.684,0,0,1-.965-1.889,20.6,20.6,0,0,1-.339-4.327V86.284Z" transform="translate(-567.511 -57.698)" fill="#039"/>
      <path id="Path_6993" data-name="Path 6993" d="M781.458,109.848h-3.27v-6.3a9.666,9.666,0,0,0-.21-2.587,1.825,1.825,0,0,0-.682-.912,1.937,1.937,0,0,0-1.134-.327,2.608,2.608,0,0,0-1.522.464,2.357,2.357,0,0,0-.924,1.231,10.685,10.685,0,0,0-.25,2.838v5.595H770.2V97.493h3.035V99.3a5.066,5.066,0,0,1,6.047-1.707,3.3,3.3,0,0,1,1.356.993,3.543,3.543,0,0,1,.638,1.372,10.4,10.4,0,0,1,.182,2.2v7.673Z" transform="translate(-592.886 -64.216)" fill="#039"/>
      <path id="Path_6994" data-name="Path 6994" d="M806.3,89.3V86.28h3.27V89.3Zm0,14.023V90.974h3.27v12.352Z" transform="translate(-614.414 -57.698)" fill="#039"/>
      <path id="Path_6995" data-name="Path 6995" d="M820.82,103.511a6.666,6.666,0,0,1,.8-3.152,5.493,5.493,0,0,1,2.273-2.325,6.724,6.724,0,0,1,3.286-.8,6.161,6.161,0,0,1,4.594,1.82,6.284,6.284,0,0,1,1.792,4.6,6.38,6.38,0,0,1-1.808,4.646,6.124,6.124,0,0,1-4.553,1.845,7.152,7.152,0,0,1-3.237-.767,5.288,5.288,0,0,1-2.345-2.248A7.524,7.524,0,0,1,820.82,103.511Zm3.35.174a4.091,4.091,0,0,0,.872,2.813,2.853,2.853,0,0,0,4.3,0,4.15,4.15,0,0,0,.868-2.838,4.016,4.016,0,0,0-.868-2.789,2.853,2.853,0,0,0-4.3,0A4.091,4.091,0,0,0,824.17,103.684Z" transform="translate(-623.074 -64.228)" fill="#039"/>
      <path id="Path_6996" data-name="Path 6996" d="M869.928,109.848h-3.27v-6.3a9.666,9.666,0,0,0-.21-2.587,1.825,1.825,0,0,0-.682-.912,1.937,1.937,0,0,0-1.134-.327,2.608,2.608,0,0,0-1.522.464,2.356,2.356,0,0,0-.924,1.231,10.685,10.685,0,0,0-.25,2.838v5.595H858.67V97.493h3.036V99.3a5.066,5.066,0,0,1,6.047-1.707,3.3,3.3,0,0,1,1.356.993,3.545,3.545,0,0,1,.638,1.372,10.407,10.407,0,0,1,.182,2.2v7.673Z" transform="translate(-645.645 -64.216)" fill="#039"/>
    </g>
  </g>
</svg>
