<svg width="162" height="49" viewBox="0 0 162 49" fill="none" xmlns="http://www.w3.org/2000/svg">
<path d="M155.753 26.48C155.753 26.928 155.86 27.3433 156.075 27.726C156.299 28.1086 156.598 28.412 156.971 28.636C157.344 28.86 157.755 28.972 158.203 28.972C159.136 28.972 159.864 28.5846 160.387 27.81C160.424 27.7726 160.457 27.754 160.485 27.754C160.513 27.7446 160.546 27.7493 160.583 27.768L161.171 28.062C161.246 28.1086 161.255 28.174 161.199 28.258C160.835 28.818 160.401 29.2286 159.897 29.49C159.393 29.742 158.791 29.868 158.091 29.868C157.41 29.868 156.798 29.7093 156.257 29.392C155.716 29.0746 155.291 28.6313 154.983 28.062C154.684 27.4833 154.535 26.8253 154.535 26.088C154.535 25.2946 154.689 24.604 154.997 24.016C155.305 23.4186 155.725 22.9613 156.257 22.644C156.798 22.3266 157.405 22.168 158.077 22.168C158.749 22.168 159.337 22.3173 159.841 22.616C160.354 22.9146 160.751 23.3533 161.031 23.932C161.311 24.5013 161.451 25.178 161.451 25.962V26.018C161.451 26.102 161.437 26.1673 161.409 26.214C161.381 26.2513 161.325 26.27 161.241 26.27H155.879C155.795 26.27 155.753 26.34 155.753 26.48ZM160.037 25.5C160.14 25.5 160.205 25.4906 160.233 25.472C160.261 25.444 160.275 25.388 160.275 25.304C160.275 24.8933 160.186 24.5153 160.009 24.17C159.841 23.8153 159.589 23.5353 159.253 23.33C158.926 23.1153 158.544 23.008 158.105 23.008C157.629 23.008 157.214 23.1293 156.859 23.372C156.504 23.6053 156.234 23.9133 156.047 24.296C155.86 24.6693 155.772 25.0706 155.781 25.5H160.037Z" fill="#041028"/>
<path d="M152.81 29.4901C152.81 29.5834 152.791 29.6488 152.754 29.6861C152.717 29.7141 152.651 29.7281 152.558 29.7281H151.83C151.746 29.7281 151.69 29.7141 151.662 29.6861C151.634 29.6581 151.62 29.6068 151.62 29.5321L151.634 19.5361C151.634 19.4054 151.69 19.3401 151.802 19.3401H152.642C152.754 19.3401 152.81 19.4008 152.81 19.5221V29.4901Z" fill="#041028"/>
<path d="M148.262 28.832C147.543 29.5226 146.712 29.868 145.77 29.868C145.042 29.868 144.468 29.686 144.048 29.322C143.637 28.9486 143.432 28.454 143.432 27.838C143.432 27.0913 143.744 26.5033 144.37 26.074C145.004 25.6446 145.919 25.3926 147.114 25.318L148.206 25.234C148.364 25.2153 148.444 25.1453 148.444 25.024V24.646C148.444 24.142 148.285 23.7453 147.968 23.456C147.66 23.1573 147.24 23.008 146.708 23.008C145.886 23.008 145.214 23.3813 144.692 24.128C144.664 24.1746 144.636 24.2073 144.608 24.226C144.58 24.2353 144.542 24.2306 144.496 24.212L143.74 23.96C143.693 23.9413 143.67 23.9086 143.67 23.862C143.67 23.834 143.684 23.792 143.712 23.736C143.992 23.2413 144.388 22.8586 144.902 22.588C145.424 22.308 146.04 22.168 146.75 22.168C147.664 22.168 148.364 22.3826 148.85 22.812C149.335 23.232 149.578 23.8153 149.578 24.562V29.518C149.578 29.602 149.564 29.658 149.536 29.686C149.508 29.714 149.456 29.728 149.382 29.728H148.682C148.57 29.728 148.504 29.6533 148.486 29.504L148.458 28.86C148.448 28.7946 148.425 28.762 148.388 28.762C148.35 28.762 148.308 28.7853 148.262 28.832ZM148.444 26.172C148.444 26.0226 148.374 25.948 148.234 25.948L147.324 26.032C146.456 26.088 145.784 26.256 145.308 26.536C144.841 26.816 144.608 27.2033 144.608 27.698C144.608 28.0993 144.748 28.4166 145.028 28.65C145.317 28.8833 145.7 29 146.176 29C146.465 29 146.75 28.9486 147.03 28.846C147.31 28.7433 147.557 28.6033 147.772 28.426C147.986 28.258 148.15 28.0806 148.262 27.894C148.383 27.698 148.444 27.5113 148.444 27.334V26.172Z" fill="#041028"/>
<path d="M141.833 20.7121C141.833 20.8054 141.814 20.8754 141.777 20.9221C141.739 20.9594 141.674 20.9781 141.581 20.9781H140.769C140.629 20.9781 140.559 20.8988 140.559 20.7401V19.5641C140.559 19.4148 140.624 19.3401 140.755 19.3401H141.637C141.693 19.3401 141.739 19.3588 141.777 19.3961C141.814 19.4334 141.833 19.4848 141.833 19.5501V20.7121ZM141.777 29.4901C141.777 29.5834 141.758 29.6488 141.721 29.6861C141.683 29.7141 141.618 29.7281 141.525 29.7281H140.811C140.727 29.7281 140.671 29.7141 140.643 29.6861C140.615 29.6581 140.601 29.6068 140.601 29.5321V22.5041C140.601 22.3734 140.657 22.3081 140.769 22.3081H141.623C141.725 22.3081 141.777 22.3688 141.777 22.4901V29.4901Z" fill="#041028"/>
<path d="M136.092 22.168C136.773 22.168 137.352 22.3266 137.828 22.644C138.313 22.9613 138.701 23.3813 138.99 23.904L139.018 24.016C139.018 24.072 138.985 24.1046 138.92 24.114L138.15 24.296L138.108 24.31C138.061 24.31 138.015 24.2726 137.968 24.198C137.669 23.7966 137.38 23.5026 137.1 23.316C136.829 23.1293 136.517 23.036 136.162 23.036C135.434 23.036 134.855 23.3066 134.426 23.848C133.997 24.38 133.782 25.1033 133.782 26.018C133.782 26.942 133.997 27.67 134.426 28.202C134.865 28.734 135.453 29 136.19 29C136.629 29 137.011 28.8926 137.338 28.678C137.674 28.4633 137.977 28.132 138.248 27.684C138.276 27.6373 138.304 27.614 138.332 27.614C138.36 27.6046 138.393 27.6093 138.43 27.628L139.032 27.852C139.097 27.88 139.116 27.9406 139.088 28.034C138.799 28.5753 138.402 29.0186 137.898 29.364C137.394 29.7 136.792 29.868 136.092 29.868C135.411 29.868 134.804 29.7093 134.272 29.392C133.74 29.0653 133.325 28.6126 133.026 28.034C132.727 27.4553 132.578 26.7926 132.578 26.046C132.578 25.2993 132.727 24.632 133.026 24.044C133.325 23.4466 133.74 22.9846 134.272 22.658C134.813 22.3313 135.42 22.168 136.092 22.168Z" fill="#041028"/>
<path d="M127.739 29.868C127.039 29.868 126.419 29.7093 125.877 29.392C125.345 29.0653 124.93 28.6126 124.631 28.034C124.342 27.4553 124.197 26.7973 124.197 26.06C124.197 25.304 124.347 24.632 124.645 24.044C124.953 23.456 125.373 22.9986 125.905 22.672C126.447 22.336 127.063 22.168 127.753 22.168C128.444 22.168 129.055 22.336 129.587 22.672C130.129 22.9986 130.544 23.456 130.833 24.044C131.132 24.632 131.281 25.2993 131.281 26.046C131.281 26.7833 131.132 27.4413 130.833 28.02C130.535 28.5986 130.115 29.0513 129.573 29.378C129.041 29.7046 128.43 29.868 127.739 29.868ZM127.767 28.986C128.495 28.986 129.06 28.7246 129.461 28.202C129.872 27.67 130.077 26.942 130.077 26.018C130.077 25.1033 129.867 24.38 129.447 23.848C129.037 23.3066 128.472 23.036 127.753 23.036C127.025 23.036 126.451 23.3066 126.031 23.848C125.611 24.38 125.401 25.1033 125.401 26.018C125.401 26.9326 125.611 27.656 126.031 28.188C126.451 28.72 127.03 28.986 127.767 28.986Z" fill="#041028"/>
<path d="M121.919 23.946C121.723 23.6566 121.453 23.428 121.107 23.26C120.771 23.0826 120.379 22.994 119.931 22.994C119.418 22.994 118.998 23.106 118.671 23.33C118.345 23.5446 118.181 23.8293 118.181 24.184C118.181 24.3986 118.261 24.5946 118.419 24.772C118.587 24.94 118.886 25.0893 119.315 25.22L121.093 25.752C121.709 25.92 122.167 26.172 122.465 26.508C122.764 26.8346 122.913 27.2266 122.913 27.684C122.913 28.1133 122.783 28.496 122.521 28.832C122.26 29.1586 121.901 29.4153 121.443 29.602C120.986 29.7793 120.468 29.868 119.889 29.868C119.171 29.868 118.531 29.728 117.971 29.448C117.411 29.1586 117.015 28.7853 116.781 28.328C116.753 28.2813 116.739 28.244 116.739 28.216C116.739 28.1693 116.763 28.132 116.809 28.104L117.355 27.796C117.449 27.74 117.519 27.7446 117.565 27.81C118.069 28.6126 118.849 29.014 119.903 29.014C120.454 29.0046 120.907 28.8926 121.261 28.678C121.625 28.454 121.807 28.1646 121.807 27.81C121.807 27.5486 121.7 27.3293 121.485 27.152C121.271 26.9746 120.921 26.816 120.435 26.676L118.993 26.27C118.312 26.0926 117.822 25.8453 117.523 25.528C117.234 25.2106 117.089 24.8233 117.089 24.366C117.089 23.9366 117.206 23.554 117.439 23.218C117.682 22.882 118.018 22.6253 118.447 22.448C118.886 22.2613 119.385 22.168 119.945 22.168C120.561 22.168 121.112 22.2846 121.597 22.518C122.092 22.7513 122.47 23.0686 122.731 23.47C122.797 23.5633 122.792 23.6286 122.717 23.666L122.129 23.988C122.092 24.0066 122.064 24.016 122.045 24.016C122.008 24.016 121.966 23.9926 121.919 23.946Z" fill="#041028"/>
<path d="M107.109 26.48C107.109 26.928 107.216 27.3433 107.431 27.726C107.655 28.1086 107.953 28.412 108.327 28.636C108.7 28.86 109.111 28.972 109.559 28.972C110.492 28.972 111.22 28.5846 111.743 27.81C111.78 27.7726 111.813 27.754 111.841 27.754C111.869 27.7446 111.901 27.7493 111.939 27.768L112.527 28.062C112.601 28.1086 112.611 28.174 112.555 28.258C112.191 28.818 111.757 29.2286 111.253 29.49C110.749 29.742 110.147 29.868 109.447 29.868C108.765 29.868 108.154 29.7093 107.613 29.392C107.071 29.0746 106.647 28.6313 106.339 28.062C106.04 27.4833 105.891 26.8253 105.891 26.088C105.891 25.2946 106.045 24.604 106.353 24.016C106.661 23.4186 107.081 22.9613 107.613 22.644C108.154 22.3266 108.761 22.168 109.433 22.168C110.105 22.168 110.693 22.3173 111.197 22.616C111.71 22.9146 112.107 23.3533 112.387 23.932C112.667 24.5013 112.807 25.178 112.807 25.962V26.018C112.807 26.102 112.793 26.1673 112.765 26.214C112.737 26.2513 112.681 26.27 112.597 26.27H107.235C107.151 26.27 107.109 26.34 107.109 26.48ZM111.393 25.5C111.495 25.5 111.561 25.4906 111.589 25.472C111.617 25.444 111.631 25.388 111.631 25.304C111.631 24.8933 111.542 24.5153 111.365 24.17C111.197 23.8153 110.945 23.5353 110.609 23.33C110.282 23.1153 109.899 23.008 109.461 23.008C108.985 23.008 108.569 23.1293 108.215 23.372C107.86 23.6053 107.589 23.9133 107.403 24.296C107.216 24.6693 107.127 25.0706 107.137 25.5H111.393ZM111.253 19.928C111.262 19.9466 111.267 19.9746 111.267 20.012C111.267 20.0866 111.215 20.138 111.113 20.166L107.907 21.174C107.888 21.1833 107.86 21.188 107.823 21.188C107.757 21.188 107.711 21.146 107.683 21.062L107.571 20.754C107.561 20.7353 107.557 20.712 107.557 20.684C107.557 20.6093 107.585 20.5673 107.641 20.558L110.875 19.214C110.884 19.2046 110.903 19.2 110.931 19.2C110.987 19.2 111.024 19.228 111.043 19.284L111.253 19.928Z" fill="#041028"/>
<path d="M103.049 23.1761C102.974 23.1761 102.937 23.2181 102.937 23.3021V27.7401C102.937 28.1601 103.007 28.4494 103.147 28.6081C103.287 28.7668 103.515 28.8461 103.833 28.8461H104.799C104.901 28.8461 104.953 28.8974 104.953 29.0001L104.939 29.4761C104.939 29.5694 104.883 29.6301 104.771 29.6581C104.528 29.7048 104.089 29.7281 103.455 29.7281C102.867 29.7281 102.437 29.5928 102.167 29.3221C101.896 29.0421 101.761 28.6034 101.761 28.0061V23.3301C101.761 23.2274 101.714 23.1761 101.621 23.1761H100.501C100.398 23.1761 100.347 23.1294 100.347 23.0361V22.4481C100.347 22.3548 100.393 22.3081 100.487 22.3081H101.677C101.742 22.3081 101.775 22.2708 101.775 22.1961L101.929 19.9701C101.929 19.8488 101.98 19.7881 102.083 19.7881H102.783C102.895 19.7881 102.951 19.8534 102.951 19.9841V22.1961C102.951 22.2708 102.988 22.3081 103.063 22.3081H104.827C104.929 22.3081 104.981 22.3501 104.981 22.4341V23.0361C104.981 23.1294 104.929 23.1761 104.827 23.1761H103.049Z" fill="#041028"/>
<path d="M98.9713 20.7121C98.9713 20.8054 98.9526 20.8754 98.9153 20.9221C98.8779 20.9594 98.8126 20.9781 98.7193 20.9781H97.9073C97.7673 20.9781 97.6973 20.8988 97.6973 20.7401V19.5641C97.6973 19.4148 97.7626 19.3401 97.8933 19.3401H98.7753C98.8313 19.3401 98.8779 19.3588 98.9153 19.3961C98.9526 19.4334 98.9713 19.4848 98.9713 19.5501V20.7121ZM98.9153 29.4901C98.9153 29.5834 98.8966 29.6488 98.8593 29.6861C98.8219 29.7141 98.7566 29.7281 98.6633 29.7281H97.9493C97.8653 29.7281 97.8093 29.7141 97.7813 29.6861C97.7533 29.6581 97.7393 29.6068 97.7393 29.5321V22.5041C97.7393 22.3734 97.7953 22.3081 97.9073 22.3081H98.7613C98.8639 22.3081 98.9153 22.3688 98.9153 22.4901V29.4901Z" fill="#041028"/>
<path d="M92.5759 29.728C92.4452 29.728 92.3799 29.6673 92.3799 29.546V22.49C92.3799 22.3686 92.4312 22.308 92.5339 22.308H93.3459C93.4485 22.308 93.4999 22.3593 93.4999 22.462V23.372C93.4999 23.428 93.5139 23.4606 93.5419 23.47C93.5792 23.4793 93.6166 23.4606 93.6539 23.414C94.3632 22.5833 95.0865 22.168 95.8239 22.168C96.1505 22.168 96.3139 22.2286 96.3139 22.35V23.19C96.3139 23.2833 96.2719 23.3206 96.1879 23.302C96.0199 23.274 95.8099 23.26 95.5579 23.26C95.2872 23.26 94.9932 23.3393 94.6759 23.498C94.3586 23.6566 94.0926 23.862 93.8779 24.114C93.6632 24.366 93.5559 24.6226 93.5559 24.884V29.518C93.5559 29.658 93.4859 29.728 93.3459 29.728H92.5759Z" fill="#041028"/>
<path d="M86.7928 28.9441C87.1755 28.9441 87.5488 28.8414 87.9128 28.6361C88.2861 28.4214 88.6641 28.1181 89.0468 27.7261V22.5041C89.0468 22.3734 89.1215 22.3081 89.2708 22.3081H90.0408C90.1715 22.3081 90.2368 22.3734 90.2368 22.5041L90.2088 29.5461C90.2088 29.6674 90.1575 29.7281 90.0548 29.7281H89.2428C89.1401 29.7281 89.0888 29.6768 89.0888 29.5741V28.7481C89.0888 28.6361 89.0468 28.6221 88.9628 28.7061C88.4588 29.1354 88.0108 29.4388 87.6188 29.6161C87.2268 29.7841 86.8255 29.8681 86.4148 29.8681C85.7615 29.8681 85.2248 29.6721 84.8048 29.2801C84.3848 28.8881 84.1748 28.3701 84.1748 27.7261V22.5181C84.1748 22.3781 84.2448 22.3081 84.3848 22.3081H85.1688C85.2901 22.3081 85.3508 22.3734 85.3508 22.5041V27.4181C85.3508 27.8848 85.4768 28.2581 85.7288 28.5381C85.9901 28.8088 86.3448 28.9441 86.7928 28.9441Z" fill="#041028"/>
<path d="M79.764 22.168C80.4453 22.168 81.024 22.3266 81.5 22.644C81.9853 22.9613 82.3727 23.3813 82.662 23.904L82.69 24.016C82.69 24.072 82.6573 24.1046 82.592 24.114L81.822 24.296L81.78 24.31C81.7333 24.31 81.6867 24.2726 81.64 24.198C81.3413 23.7966 81.052 23.5026 80.772 23.316C80.5013 23.1293 80.1887 23.036 79.834 23.036C79.106 23.036 78.5273 23.3066 78.098 23.848C77.6687 24.38 77.454 25.1033 77.454 26.018C77.454 26.942 77.6687 27.67 78.098 28.202C78.5367 28.734 79.1247 29 79.862 29C80.3007 29 80.6833 28.8926 81.01 28.678C81.346 28.4633 81.6493 28.132 81.92 27.684C81.948 27.6373 81.976 27.614 82.004 27.614C82.032 27.6046 82.0647 27.6093 82.102 27.628L82.704 27.852C82.7693 27.88 82.788 27.9406 82.76 28.034C82.4707 28.5753 82.074 29.0186 81.57 29.364C81.066 29.7 80.464 29.868 79.764 29.868C79.0827 29.868 78.476 29.7093 77.944 29.392C77.412 29.0653 76.9967 28.6126 76.698 28.034C76.3993 27.4553 76.25 26.7926 76.25 26.046C76.25 25.2993 76.3993 24.632 76.698 24.044C76.9967 23.4466 77.412 22.9846 77.944 22.658C78.4853 22.3313 79.092 22.168 79.764 22.168Z" fill="#041028"/>
<path d="M69.3332 26.48C69.3332 26.928 69.4406 27.3433 69.6552 27.726C69.8792 28.1086 70.1779 28.412 70.5512 28.636C70.9246 28.86 71.3352 28.972 71.7832 28.972C72.7166 28.972 73.4446 28.5846 73.9672 27.81C74.0046 27.7726 74.0372 27.754 74.0652 27.754C74.0932 27.7446 74.1259 27.7493 74.1632 27.768L74.7512 28.062C74.8259 28.1086 74.8352 28.174 74.7792 28.258C74.4152 28.818 73.9812 29.2286 73.4772 29.49C72.9732 29.742 72.3712 29.868 71.6712 29.868C70.9899 29.868 70.3786 29.7093 69.8372 29.392C69.2959 29.0746 68.8712 28.6313 68.5632 28.062C68.2646 27.4833 68.1152 26.8253 68.1152 26.088C68.1152 25.2946 68.2692 24.604 68.5772 24.016C68.8852 23.4186 69.3052 22.9613 69.8372 22.644C70.3786 22.3266 70.9852 22.168 71.6572 22.168C72.3292 22.168 72.9172 22.3173 73.4212 22.616C73.9346 22.9146 74.3312 23.3533 74.6112 23.932C74.8912 24.5013 75.0312 25.178 75.0312 25.962V26.018C75.0312 26.102 75.0172 26.1673 74.9892 26.214C74.9612 26.2513 74.9052 26.27 74.8212 26.27H69.4592C69.3752 26.27 69.3332 26.34 69.3332 26.48ZM73.6172 25.5C73.7199 25.5 73.7852 25.4906 73.8132 25.472C73.8412 25.444 73.8552 25.388 73.8552 25.304C73.8552 24.8933 73.7666 24.5153 73.5892 24.17C73.4212 23.8153 73.1692 23.5353 72.8332 23.33C72.5066 23.1153 72.1239 23.008 71.6852 23.008C71.2092 23.008 70.7939 23.1293 70.4392 23.372C70.0846 23.6053 69.8139 23.9133 69.6272 24.296C69.4406 24.6693 69.3519 25.0706 69.3612 25.5H73.6172ZM73.4772 19.928C73.4866 19.9466 73.4912 19.9746 73.4912 20.012C73.4912 20.0866 73.4399 20.138 73.3372 20.166L70.1312 21.174C70.1126 21.1833 70.0846 21.188 70.0472 21.188C69.9819 21.188 69.9352 21.146 69.9072 21.062L69.7952 20.754C69.7859 20.7353 69.7812 20.712 69.7812 20.684C69.7812 20.6093 69.8092 20.5673 69.8652 20.558L73.0992 19.214C73.1086 19.2046 73.1272 19.2 73.1552 19.2C73.2112 19.2 73.2486 19.228 73.2672 19.284L73.4772 19.928Z" fill="#041028"/>
<path d="M65.4748 21.272C64.8775 20.572 64.0841 20.222 63.0948 20.222C62.3948 20.222 61.8441 20.376 61.4428 20.684C61.0415 20.992 60.8408 21.4213 60.8408 21.972C60.8408 22.7 61.3401 23.232 62.3388 23.568L64.3688 24.24C65.1901 24.5106 65.7828 24.8746 66.1468 25.332C66.5201 25.78 66.7068 26.3306 66.7068 26.984C66.7068 27.88 66.3755 28.5846 65.7128 29.098C65.0501 29.6113 64.1448 29.868 62.9968 29.868C62.1568 29.868 61.4148 29.7186 60.7708 29.42C60.1361 29.1213 59.6228 28.6873 59.2308 28.118C59.1935 28.0433 59.1748 27.9966 59.1748 27.978C59.1748 27.9126 59.2215 27.8473 59.3148 27.782L59.8188 27.432C59.9028 27.376 59.9681 27.348 60.0148 27.348C60.0708 27.348 60.1221 27.376 60.1688 27.432C60.5701 27.9453 60.9668 28.3093 61.3588 28.524C61.7508 28.7386 62.2781 28.846 62.9408 28.846C63.7248 28.846 64.3315 28.706 64.7608 28.426C65.1995 28.146 65.4188 27.712 65.4188 27.124C65.4188 26.76 65.3021 26.452 65.0688 26.2C64.8448 25.9386 64.4341 25.696 63.8368 25.472L61.7088 24.744C60.9715 24.492 60.4255 24.1326 60.0708 23.666C59.7255 23.19 59.5528 22.6673 59.5528 22.098C59.5528 21.5193 59.6975 21.0106 59.9868 20.572C60.2855 20.1333 60.7008 19.7973 61.2328 19.564C61.7741 19.3213 62.3948 19.2 63.0948 19.2C63.7761 19.2 64.3921 19.3213 64.9428 19.564C65.5028 19.8066 65.9788 20.1473 66.3708 20.586C66.4175 20.6326 66.4408 20.6793 66.4408 20.726C66.4408 20.7726 66.4175 20.8146 66.3708 20.852L65.7268 21.356C65.6988 21.384 65.6708 21.398 65.6428 21.398C65.6148 21.398 65.5588 21.356 65.4748 21.272Z" fill="#041028"/>
<path fill-rule="evenodd" clip-rule="evenodd" d="M45.0431 33.9883C43.5401 30.2545 39.2897 28.4541 35.5558 29.957C35.5323 29.9648 35.5088 29.9805 35.4854 29.9883C36.9961 33.7222 41.2466 35.5226 44.9805 34.0118C45.0039 34.004 45.0274 33.9961 45.0431 33.9883Z" fill="#A3EDC6"/>
<path fill-rule="evenodd" clip-rule="evenodd" d="M48.4956 23.4598C44.0024 20.681 38.1081 22.0743 35.3292 26.5674C35.3136 26.5988 35.2901 26.6222 35.2744 26.6536C39.7676 29.4324 45.6697 28.0391 48.4486 23.5459C48.4642 23.5146 48.4799 23.4911 48.5034 23.4598H48.4956Z" fill="#4DDF9B"/>
<path fill-rule="evenodd" clip-rule="evenodd" d="M46.4686 9.45605C39.8776 9.79265 34.813 15.413 35.1496 22.004C35.1496 22.0431 35.1496 22.0823 35.1496 22.1214C41.7328 21.7926 46.8052 16.1801 46.4686 9.59696C46.4686 9.54999 46.4686 9.50302 46.4608 9.45605H46.4686Z" fill="#45CAA4"/>
<path fill-rule="evenodd" clip-rule="evenodd" d="M33.4666 1.61255C28.0576 5.97263 27.2122 13.8865 31.5722 19.2955C31.6035 19.3268 31.627 19.366 31.6583 19.3973C37.0673 15.0372 37.9127 7.12331 33.5527 1.71431C33.5214 1.683 33.4979 1.64386 33.4666 1.61255Z" fill="#69C1E4"/>
<path fill-rule="evenodd" clip-rule="evenodd" d="M15.901 0.728027C13.3962 9.04897 18.1163 17.8239 26.4373 20.3288C26.492 20.3445 26.5468 20.3601 26.6016 20.3758C29.1065 12.0548 24.3942 3.27989 16.0733 0.774994C16.0185 0.759338 15.9637 0.743683 15.9089 0.728027H15.901Z" fill="#46CCCA"/>
<path fill-rule="evenodd" clip-rule="evenodd" d="M0.753906 13.4169C3.71281 22.7007 13.6384 27.8279 22.9222 24.869C22.9848 24.8533 23.0474 24.8298 23.1022 24.8063C20.1433 15.5304 10.2099 10.4032 0.926118 13.3621C0.871323 13.3778 0.808701 13.4012 0.753906 13.4169Z" fill="#C5EDF3"/>
<path fill-rule="evenodd" clip-rule="evenodd" d="M2.95312 33.1741C9.19187 37.5812 17.8259 36.1017 22.2408 29.863C22.2643 29.8238 22.2956 29.7925 22.3191 29.7534C16.0803 25.3385 7.4541 26.8179 3.03923 33.0567C3.00792 33.0958 2.98444 33.135 2.95312 33.1741Z" fill="#46CCCA"/>
<path fill-rule="evenodd" clip-rule="evenodd" d="M12.7852 46.1137C20.0415 46.2937 26.0689 40.5559 26.249 33.2996C26.249 33.2526 26.249 33.2056 26.249 33.1587C18.9926 32.9786 12.9652 38.7164 12.7852 45.9728C12.7852 46.0197 12.7852 46.0667 12.7852 46.1137Z" fill="#69C1E4"/>
<path fill-rule="evenodd" clip-rule="evenodd" d="M28.2141 48.728C32.5507 45.3933 33.3648 39.1702 30.0223 34.8336C29.9988 34.8102 29.9832 34.7789 29.9597 34.7554C25.6231 38.09 24.809 44.3053 28.1437 48.6419C28.1671 48.6732 28.1828 48.6967 28.2063 48.728H28.2141Z" fill="#45CAA4"/>
<path fill-rule="evenodd" clip-rule="evenodd" d="M37.7713 43.0764C39.7439 38.7946 37.8731 33.7222 33.5913 31.7418C33.56 31.7261 33.5365 31.7183 33.5052 31.7026C31.5326 35.9844 33.4034 41.0568 37.6852 43.0294C37.7165 43.0451 37.74 43.0529 37.7713 43.0686V43.0764Z" fill="#4DDF9B"/>
</svg>
